:SAMPLES-PER-SECOND 30
:FULLY-SPECIFIED
:DEGREES
654
root  -79.7707 40.7742 3.11626 176.777 -3.86755 176.539
RightUpLeg  -2.92895 -18.8041 -5.75332
RightLeg  14.7076 -20.6948 -1.11252
RightFoot  -6.63683 0.107085 -3.70628
RightToes  -4.65663e-010 0 -3.6325e-017
Spine  1.09995 0.117574 2.81457
Spine1  5.38123 0.898049 -2.53462
HEad  -15.1739 -13.6302 -2.90693
LeftShoulder1  -0.764252 5.42828 -33.5424
LeftArm  0.468024 15.8838 -34.7736
LeftForeArm  23.1405 -13.7159 -7.1806
LeftHand  -0.0700336 8.73717 -0.702952
RightShoulder  -1.19088 -6.75872 30.082
RightArm  28.1509 -6.5787 43.3963
RightForeArm  10.4555 29.8271 5.91698
RightHand  0.019476 5.01471 -0.100274
LeftUpLeg  7.51577 47.7795 14.8168
LeftLeg  20.5554 22.7522 9.77198
LeftFoot  1.96539 0.834385 -7.30555
LeftToes  8.74931e-010 -1.05764e-010 1.2659e-011
655
root  -79.6048 40.6214 2.82196 176.335 1.58704 177.436
RightUpLeg  -3.30921 -17.5547 -3.96853
RightLeg  15.4858 -16.7776 -0.937685
RightFoot  -7.48499 0.0930177 -4.26097
RightToes  -4.65663e-010 0 -3.6325e-017
Spine  1.72647 -0.0166401 4.05808
Spine1  4.78036 0.722761 -2.00084
HEad  -14.8581 -13.5218 -1.65819
LeftShoulder1  -0.734914 5.36445 -33.3346
LeftArm  2.39062 16.9035 -35.7486
LeftForeArm  22.3693 -14.7977 -6.99295
LeftHand  -0.0908703 8.90323 -1.29339
RightShoulder  -1.31626 -7.07641 30.3497
RightArm  28.4697 -5.50798 43.015
RightForeArm  6.85207 25.4133 5.08816
RightHand  -0.0536876 4.25785 -0.908336
LeftUpLeg  4.91848 43.8199 16.2628
LeftLeg  28.9358 22.279 13.1461
LeftFoot  4.80713 0.456832 -3.48544
LeftToes  8.74931e-010 -1.05764e-010 1.2659e-011
656
root  -79.4996 40.428 2.5916 175.604 6.57672 177.911
RightUpLeg  -3.72204 -15.7717 -2.78935
RightLeg  17.3185 -13.9397 -1.18187
RightFoot  -8.62848 0.0505862 -4.59579
RightToes  -4.65663e-010 0 -3.6325e-017
Spine  2.94096 -0.518839 4.26947
Spine1  4.50861 0.112693 -0.497502
HEad  -14.9453 -14.487 -1.03585
LeftShoulder1  -0.73519 5.35868 -33.4663
LeftArm  2.79489 17.2068 -37.0039
LeftForeArm  23.2506 -15.4526 -6.70884
LeftHand  -0.0525755 8.31997 -0.290245
RightShoulder  -1.3378 -7.0451 31.2724
RightArm  27.1208 -3.73404 41.6777
RightForeArm  5.9116 21.2161 4.75921
RightHand  -0.0978184 4.23345 -1.48912
LeftUpLeg  2.54049 37.344 15.8953
LeftLeg  35.0315 18.4715 13.6576
LeftFoot  6.15687 -0.0258491 -0.0491107
LeftToes  8.74931e-010 -1.05764e-010 1.2659e-011
657
root  -79.4738 40.2836 2.34775 174.892 11.8029 178.298
RightUpLeg  -3.8127 -14.7672 -1.80897
RightLeg  18.5818 -10.0308 -1.13576
RightFoot  -9.43799 0.0193232 -4.98937
RightToes  -4.65663e-010 0 -3.6325e-017
Spine  4.09744 -1.01908 4.89147
Spine1  4.64308 -0.382422 0.369419
HEad  -15.7997 -13.8324 -0.373308
LeftShoulder1  -0.743351 5.36497 -33.7575
LeftArm  3.00487 16.6808 -38.0703
LeftForeArm  23.2168 -15.5627 -6.706
LeftHand  -0.0522655 8.10361 -0.353421
RightShoulder  -1.24888 -6.8702 30.6002
RightArm  22.3863 -2.1114 41.7286
RightForeArm  8.53582 16.7981 5.77831
RightHand  -0.139207 2.58379 -2.19026
LeftUpLeg  0.958822 31.3153 15.0474
LeftLeg  38.8744 11.1216 9.87951
LeftFoot  3.51426 0.204321 -1.76331
LeftToes  8.74931e-010 -1.05764e-010 1.2659e-011
658
root  -79.496 40.1918 2.06419 174.682 17.4604 178.409
RightUpLeg  -4.26648 -12.5576 -1.04155
RightLeg  19.4863 -6.73519 -0.948254
RightFoot  -9.81409 0.0048166 -5.3198
RightToes  -4.65663e-010 0 -3.6325e-017
Spine  4.58838 -1.20326 5.81596
Spine1  4.91686 -0.384012 0.370978
HEad  -16.1332 -12.9705 1.1582
LeftShoulder1  -0.611469 5.05674 -33.2262
LeftArm  2.25421 15.9017 -39.5895
LeftForeArm  24.2095 -15.0899 -6.87854
LeftHand  -0.0236262 8.81292 0.817134
RightShoulder  -1.23859 -6.85767 30.4082
RightArm  19.0102 -0.343598 41.3152
RightForeArm  10.495 12.6277 7.07895
RightHand  -0.237858 3.61181 -3.32902
LeftUpLeg  -0.812937 26.7124 12.9469
LeftLeg  42.2888 9.13192 9.18218
LeftFoot  1.29202 0.361154 -3.30484
LeftToes  8.74931e-010 -1.05764e-010 1.2659e-011
659
root  -79.5682 40.1872 1.7216 175.093 23.5292 178.172
RightUpLeg  -5.04066 -10.4338 -0.745886
RightLeg  19.5518 -3.02181 -0.142029
RightFoot  -9.91217 0.00171005 -5.49441
RightToes  -4.65663e-010 0 -3.6325e-017
Spine  4.13778 -1.15939 6.83811
Spine1  5.29502 -0.173459 -0.0440885
HEad  -15.682 -12.6694 1.87572
LeftShoulder1  -0.591149 5.01275 -33.0268
LeftArm  1.37563 14.8886 -40.6072
LeftForeArm  25.0646 -14.9211 -6.83118
LeftHand  0.022073 8.92526 2.20491
RightShoulder  -1.0818 -6.5272 29.2611
RightArm  17.4855 0.27248 41.4969
RightForeArm  12.3689 10.4482 7.58875
RightHand  -0.26173 3.43063 -3.70921
LeftUpLeg  -2.91193 23.0154 9.98052
LeftLeg  44.2643 8.42766 9.0884
LeftFoot  0.398323 0.277174 -2.70547
LeftToes  8.74931e-010 -1.05764e-010 1.2659e-011
660
root  -79.5554 40.2437 1.31371 174.866 29.4304 177.7
RightUpLeg  -4.78144 -8.66423 -0.776481
RightLeg  19.0638 0.861104 0.519057
RightFoot  -9.83342 0.0059696 -5.48258
RightToes  -4.65663e-010 0 -3.6325e-017
Spine  4.34457 -1.20317 7.05851
Spine1  5.09516 -0.109794 -0.525452
HEad  -14.7742 -12.4057 1.57356
LeftShoulder1  -0.596189 5.03436 -32.7893
LeftArm  4.84482 14.6838 -40.4197
LeftForeArm  22.1116 -16.954 -6.24107
LeftHand  0.0544821 9.58793 2.78882
RightShoulder  -1.00782 -6.34533 28.9207
RightArm  17.2954 0.338899 41.244
RightForeArm  13.294 9.3369 7.86706
RightHand  -0.259127 2.67751 -3.9491
LeftUpLeg  -4.19102 18.9139 7.08387
LeftLeg  44.6081 7.95912 8.71466
LeftFoot  -1.05365 0.174421 -1.88344
LeftToes  8.74931e-010 -1.05764e-010 1.2659e-011
661
root  -79.4723 40.3023 0.890109 175.187 36.0336 177.803
RightUpLeg  -4.71279 -6.54883 0.0262103
RightLeg  18.2409 4.65733 0.990801
RightFoot  -9.35118 0.0345085 -5.61744
RightToes  -4.65663e-010 0 -3.6325e-017
Spine  4.44081 -0.858878 8.55478
Spine1  4.69032 0.546816 -2.08561
HEad  -13.9999 -11.7686 1.99788
LeftShoulder1  -0.535981 4.89661 -32.345
LeftArm  6.26009 14.7242 -40.1358
LeftForeArm  20.8981 -18.7995 -5.36102
LeftHand  0.083786 9.91685 3.11372
RightShoulder  -0.97327 -6.28271 28.4713
RightArm  16.8873 -0.099325 41.6836
RightForeArm  14.1594 8.47841 7.97694
RightHand  -0.160069 2.75916 -2.53057
LeftUpLeg  -5.48373 15.6046 5.27771
LeftLeg  43.4379 6.90493 7.33789
LeftFoot  -3.00223 0.196643 -2.46506
LeftToes  8.74931e-010 -1.05764e-010 1.2659e-011
662
root  -79.4841 40.3283 0.478822 175.434 42.2306 177.129
RightUpLeg  -5.55715 -5.43079 -0.138358
RightLeg  18.3276 9.16771 1.74975
RightFoot  -9.32007 0.0372633 -5.66826
RightToes  -4.65663e-010 0 -3.6325e-017
Spine  4.34663 -0.579468 8.57118
Spine1  4.6278 0.777015 -2.19677
HEad  -14.9097 -10.4297 1.01312
LeftShoulder1  -0.573452 4.9707 -32.9302
LeftArm  5.67427 14.3502 -39.1678
LeftForeArm  20.5269 -20.2878 -4.59186
LeftHand  -0.0349402 6.94681 0.537549
RightShoulder  -0.988803 -6.35962 28.0725
RightArm  16.8167 -0.138601 42.2648
RightForeArm  14.2214 8.52841 7.93807
RightHand  -0.16586 1.01753 -3.09733
LeftUpLeg  -7.26631 11.0351 2.64439
LeftLeg  40.8201 6.05824 5.96688
LeftFoot  -4.62599 0.213257 -3.14049
LeftToes  8.74931e-010 -1.05764e-010 1.2659e-011
663
root  -79.398 40.3818 0.0493608 175.144 48.0513 176.587
RightUpLeg  -5.39117 -4.29589 -0.181552
RightLeg  17.9747 13.6395 2.28218
RightFoot  -9.13829 0.0477287 -5.69076
RightToes  -4.65663e-010 0 -3.6325e-017
Spine  4.54163 -0.379215 8.17345
Spine1  4.87551 0.889593 -2.10926
HEad  -16.1834 -9.56443 0.669966
LeftShoulder1  -0.650006 5.15924 -33.0997
LeftArm  4.36636 13.8353 -38.5135
LeftForeArm  19.9896 -21.3117 -4.20813
LeftHand  -0.0318326 6.50042 0.292333
RightShoulder  -0.996734 -6.37424 28.1709
RightArm  16.3256 0.00432073 42.9809
RightForeArm  13.6322 7.98023 7.97297
RightHand  -0.177863 1.63441 -3.10055
LeftUpLeg  -7.89458 6.26403 1.29647
LeftLeg  36.6769 5.01484 4.35066
LeftFoot  -5.80791 0.185669 -3.12438
LeftToes  8.74931e-010 -1.05764e-010 1.2659e-011
664
root  -79.2832 40.4384 -0.388023 175.001 53.3344 176.367
RightUpLeg  -5.13693 -3.3598 -0.0888044
RightLeg  17.7597 17.9722 2.82164
RightFoot  -8.90484 0.0553178 -5.41265
RightToes  -4.65663e-010 0 -3.6325e-017
Spine  4.656 -0.387508 8.22387
Spine1  4.9738 0.905743 -2.59532
HEad  -17.0898 -8.73492 0.824785
LeftShoulder1  -0.54021 4.90475 -32.4154
LeftArm  3.30864 13.4973 -38.102
LeftForeArm  18.4784 -21.7285 -4.1529
LeftHand  -0.0264726 7.27291 0.782597
RightShoulder  -1.03927 -6.43827 28.8817
RightArm  16.1208 0.149149 43.6789
RightForeArm  12.8961 7.2186 8.12735
RightHand  -0.222675 3.23799 -3.22699
LeftUpLeg  -8.11895 1.44012 0.895823
LeftLeg  31.4727 5.08801 3.68158
LeftFoot  -6.70617 0.182385 -3.5201
LeftToes  8.74931e-010 -1.05764e-010 1.2659e-011
665
root  -79.1094 40.4922 -0.824137 174.034 58.3552 175.657
RightUpLeg  -4.25646 -3.01162 -0.396547
RightLeg  17.1887 22.4196 3.4029
RightFoot  -8.69582 0.0733636 -5.71633
RightToes  -4.65663e-010 0 -3.6325e-017
Spine  4.87606 -0.390621 7.40604
Spine1  5.43835 0.831975 -2.64601
HEad  -18.0342 -7.6967 0.932401
LeftShoulder1  -0.498335 4.80814 -32.0672
LeftArm  1.85181 12.95 -37.5227
LeftForeArm  19.3094 -21.6564 -4.10255
LeftHand  -0.0240354 6.87949 0.971963
RightShoulder  -1.03768 -6.40171 29.2671
RightArm  15.854 -0.0884357 44.8656
RightForeArm  12.8029 6.94962 8.12536
RightHand  -0.264884 4.7065 -3.36303
LeftUpLeg  -7.40135 -2.78031 0.777451
LeftLeg  25.4557 5.73959 3.28739
LeftFoot  -7.57401 0.171791 -3.83065
LeftToes  8.74931e-010 -1.05764e-010 1.2659e-011
